<svg xmlns="http://www.w3.org/2000/svg" width="923" height="854" viewBox="0 0 923 854" version="1.1">
	<path d="M 394.686 21.979 C 390.773 23.206, 389.573 24.357, 382.685 33.481 C 367.262 53.913, 348.306 70.926, 320 89.740 C 305.709 99.239, 304.945 100.213, 306.331 107.174 C 307.234 111.709, 312.866 117.002, 316.785 116.996 C 318.278 116.994, 321.058 116.043, 322.963 114.882 C 329.842 110.688, 353.691 92.380, 362.181 84.776 C 366.956 80.499, 371.051 77, 371.282 77 C 371.513 77, 356.404 123.944, 337.706 181.320 C 305.008 281.654, 303.599 285.689, 300.846 286.908 C 296.554 288.808, 289.572 296.258, 286.991 301.691 C 285.532 304.762, 284.532 309.120, 284.222 313.750 L 283.737 321 267.118 321.015 C 248.537 321.031, 241.418 322.233, 232.240 326.901 C 221.331 332.449, 213.360 341.539, 208.696 353.751 L 206.500 359.500 206.500 516.832 L 206.500 674.164 209.887 677.191 C 212.746 679.745, 213.838 680.128, 216.887 679.643 C 219.157 679.283, 221.522 677.935, 223.250 676.019 L 226 672.968 226 564.984 L 226 457 468 457 L 710 457 710 575.077 L 710 693.154 707.077 696.077 L 704.154 699 675.787 699 C 653.584 699, 646.125 699.333, 641.460 700.530 C 624.273 704.944, 611.465 716.595, 606.078 732.718 C 604.163 738.448, 604 741.239, 603.996 768.218 C 603.993 795.720, 603.871 797.699, 601.996 800.775 C 600.898 802.576, 598.987 804.423, 597.750 804.880 C 596.512 805.336, 517.200 805.438, 421.500 805.105 L 247.500 804.500 242.690 802.043 C 236.690 798.978, 231.649 794.145, 228.764 788.694 C 226.749 784.887, 226.496 782.655, 226.022 764.500 C 225.484 743.879, 224.943 741.110, 221.043 739.023 C 216.469 736.575, 208.666 739.118, 206.957 743.613 C 205.361 747.812, 205.771 817.254, 207.438 825.122 C 209.251 833.676, 213.622 842.251, 219.501 848.790 L 224.185 854 467.615 854 L 711.045 854 715.284 850.093 C 717.615 847.944, 721.192 843.363, 723.233 839.913 C 730.563 827.523, 730.088 845.677, 729.778 589.500 L 729.500 359.500 727.108 353.500 C 722.360 341.589, 715.854 333.741, 705.657 327.624 C 697 322.430, 689.097 321, 669.053 321 L 652 321 652 315.538 C 652 301.280, 641.638 287.369, 628.329 283.759 L 624.157 282.627 633.134 273.142 C 651.362 253.881, 663.244 230.745, 667.530 206.165 C 671.743 182.009, 666.888 166.020, 653.318 159.357 C 648.240 156.863, 646.419 156.510, 639 156.580 C 632.769 156.639, 628.997 157.247, 624.867 158.859 C 611.658 164.012, 594.629 179.332, 577.867 201.143 C 572.715 207.847, 567.516 214.495, 566.312 215.916 C 564.641 217.890, 566.233 212.011, 573.057 191 C 577.970 175.875, 581.992 163.007, 581.995 162.405 C 581.998 161.803, 581.053 160.453, 579.895 159.405 C 578.222 157.890, 576.263 157.500, 570.340 157.500 C 561.419 157.500, 561.202 157.703, 555.535 171.357 C 543.451 200.477, 524.278 228.955, 500.471 253.146 C 483.144 270.753, 470.696 279.178, 459.256 281.040 C 453.322 282.005, 449.447 284.166, 447.577 287.550 C 446.985 288.623, 444.772 291.446, 442.661 293.824 C 437.467 299.675, 434.795 306.131, 434.215 314.234 L 433.731 321 393.010 321 L 352.289 321 351.673 314.402 C 350.553 302.410, 343.218 290.961, 333.567 286.140 C 331.055 284.886, 329 283.424, 329 282.891 C 329 280.425, 368.726 159.564, 372.476 150.619 C 398.258 89.129, 442.889 43.976, 477.855 44.006 C 486.518 44.013, 491.249 45.402, 495.586 49.210 C 503.428 56.095, 506.212 68.118, 503.758 84.500 C 499.268 114.478, 479.061 139.956, 447.500 155.435 C 429.257 164.382, 414.560 168.639, 393.454 171.089 C 387.979 171.724, 382.717 172.652, 381.760 173.152 C 377.004 175.633, 374.872 187.972, 378.500 192.021 C 380.396 194.137, 381.021 194.222, 390.500 193.638 C 446.135 190.213, 495.642 161.092, 516.911 119.280 C 525.162 103.060, 528.344 89.390, 528.384 70 C 528.408 58.131, 528.126 55.775, 526.049 50.500 C 522.874 42.434, 520.154 38.303, 514.731 33.313 C 505.644 24.950, 495.200 21.511, 479.500 21.711 C 463.076 21.919, 446.761 27.806, 431.300 39.100 C 424.048 44.398, 407.199 60.770, 401.791 67.775 C 399.550 70.677, 397.534 72.867, 397.309 72.643 C 397.085 72.418, 400.074 62.172, 403.951 49.873 C 407.828 37.575, 411 26.711, 411 25.731 C 411 22.692, 400.276 20.225, 394.686 21.979 M 627.677 178.503 C 613.101 182.204, 591.270 206.864, 556.049 259.416 C 547.654 271.941, 547.462 270.826, 558.955 276.304 C 571.030 282.059, 585.264 281.138, 599.500 273.679 C 607.093 269.701, 620.873 256.072, 627.486 246 C 642.494 223.140, 649.299 190.997, 641.237 181.045 C 638.816 178.057, 633.419 177.045, 627.677 178.503 M 527.004 249.307 C 519.133 260.041, 496.049 283.046, 489.342 286.840 C 487.653 287.794, 487.846 288.240, 491.654 292.191 C 493.938 294.561, 496.670 297.948, 497.723 299.718 L 499.639 302.935 510.948 288.933 L 522.256 274.931 527.159 259.808 C 529.856 251.490, 531.935 244.345, 531.781 243.930 C 531.626 243.514, 529.477 245.934, 527.004 249.307 M 540.470 291.250 C 538.779 295.776, 531 319.564, 531 320.208 C 531 320.644, 542.925 321, 557.500 321 L 584 321 584 317.218 C 584 313.743, 585.802 305.608, 587.371 302 C 587.930 300.715, 586.340 300.500, 576.262 300.500 C 562.934 300.500, 556.589 298.931, 547.303 293.339 C 540.991 289.538, 541.098 289.571, 540.470 291.250 M 310.605 303.922 C 309.013 304.971, 306.763 307.326, 305.605 309.155 C 303.619 312.292, 303.500 313.807, 303.500 336.034 C 303.500 357.052, 303.694 359.884, 305.304 362.342 C 307.965 366.402, 312.846 368.992, 317.846 368.996 C 323.322 369.001, 327.226 366.721, 329.906 361.954 C 331.862 358.472, 332 356.719, 332 335.262 C 332 313.050, 331.925 312.184, 329.730 308.898 C 325.424 302.453, 316.396 300.104, 310.605 303.922 M 463 302.706 C 460.668 303.559, 456.954 307.223, 455.405 310.200 C 453.570 313.726, 453.362 357.505, 455.161 361.453 C 456.664 364.753, 457.188 364.667, 459.424 360.750 C 460.445 358.962, 466.012 350.351, 471.795 341.614 L 482.311 325.728 482.081 318.642 C 481.942 314.349, 481.227 310.499, 480.266 308.873 C 477.256 303.777, 468.563 300.673, 463 302.706 M 611 304.181 C 604.297 308.699, 603.915 310.560, 604.224 337.171 L 604.500 360.843 607 363.516 C 610.646 367.416, 614.288 369, 619.605 369 C 623.770 369, 624.734 368.554, 628.007 365.113 C 630.041 362.975, 631.996 359.769, 632.352 357.988 C 632.709 356.207, 633 345.537, 633 334.276 C 633 317.458, 632.710 313.192, 631.377 310.381 C 627.788 302.818, 617.615 299.723, 611 304.181 M 506.638 319.500 C 506.322 320.325, 506.499 321, 507.031 321 C 507.564 321, 508 320.325, 508 319.500 C 508 318.675, 507.823 318, 507.607 318 C 507.391 318, 506.955 318.675, 506.638 319.500 M 244.744 342.428 C 239.132 344.431, 232.813 350.103, 229.471 356.136 L 226.500 361.500 226.205 399.250 L 225.910 437 342.569 437 L 459.228 437 454.002 434.250 C 440.181 426.978, 437.349 410.740, 445.979 388.247 L 447.994 382.994 444.135 379.135 C 442.012 377.012, 439.010 372.626, 437.464 369.388 C 435.035 364.302, 434.591 361.968, 434.200 352.250 L 433.748 341 393 341 L 352.252 341 351.818 352.250 C 351.457 361.593, 350.954 364.432, 348.848 369 C 343.687 380.192, 332.527 387.872, 320.136 388.758 C 305.956 389.773, 294.516 383.293, 288 370.557 C 284.706 364.118, 284.480 363.046, 284.164 352.358 L 283.828 341 266.164 341.044 C 254.035 341.074, 247.323 341.508, 244.744 342.428 M 514.619 370.250 C 500.494 413.363, 492.503 428.082, 479.781 434.422 L 474.607 437 592.348 437 L 710.089 437 709.795 398.750 L 709.500 360.500 706.770 355.855 C 703.465 350.234, 699.165 346.467, 692.500 343.355 C 687.857 341.186, 686.239 341.019, 669.853 341.010 L 652.206 341 651.839 353.250 C 651.501 364.559, 651.248 365.907, 648.548 370.804 C 644.903 377.415, 639.404 382.453, 632.120 385.854 C 627.535 387.996, 625.026 388.481, 618.500 388.490 C 608.263 388.503, 602.157 386.207, 595.377 379.795 C 587.694 372.529, 584.876 365.463, 584.231 351.840 L 583.717 341 553.960 341 L 524.203 341 514.619 370.250 M 482.779 385.557 C 481.283 386.369, 477.458 387.620, 474.279 388.338 L 468.500 389.644 466.311 397.072 C 463.360 407.086, 463.286 414.386, 466.115 416.368 C 470.038 419.116, 474.126 416.077, 478.041 407.500 C 481.750 399.374, 487.115 383.991, 486.222 384.040 C 485.825 384.062, 484.276 384.744, 482.779 385.557 M 268.563 486.725 C 264.470 487.768, 258.998 492.372, 257.037 496.424 C 255.160 500.302, 255.002 502.506, 255.022 524.566 C 255.046 551.194, 255.590 553.953, 261.848 559.218 C 266.746 563.340, 273.651 564.246, 296.885 563.816 C 315.695 563.468, 317.861 563.244, 321.624 561.261 C 326.774 558.547, 330.738 553.924, 331.518 549.721 C 331.847 547.949, 331.978 535.666, 331.808 522.424 L 331.500 498.348 328.816 494.295 C 327.201 491.856, 324.387 489.398, 321.750 488.121 C 317.643 486.133, 315.902 486.007, 293.934 486.116 C 281.045 486.180, 269.629 486.454, 268.563 486.725 M 382.500 487.890 C 377.659 490.124, 374.612 493.290, 372.548 498.232 C 371.304 501.208, 371 506.422, 371 524.772 C 371 547.352, 371.029 547.666, 373.597 552.818 C 375.525 556.687, 377.392 558.734, 380.847 560.765 C 385.449 563.470, 385.727 563.504, 406.175 563.836 C 430.378 564.230, 436.384 563.358, 441.717 558.675 C 448.405 552.803, 448.953 550.288, 448.978 525.376 C 449.006 497.219, 447.749 493.010, 437.790 487.903 C 434.446 486.188, 431.734 486.002, 410.290 486.022 C 389.302 486.041, 386.029 486.261, 382.500 487.890 M 497.975 488.250 C 495.377 489.564, 492.274 492.302, 490.513 494.834 L 487.500 499.168 487.165 520.516 C 486.776 545.287, 487.630 551.370, 492.232 556.611 C 498.159 563.362, 498.827 563.500, 525.500 563.500 C 548.731 563.500, 549.654 563.424, 554.316 561.129 C 557.339 559.641, 560.131 557.249, 561.816 554.705 L 564.500 550.652 564.818 527.076 C 565.168 501.032, 564.729 498.039, 559.721 492.334 C 554.433 486.312, 552.783 486, 526.244 486 C 503.526 486, 502.218 486.104, 497.975 488.250 M 617.563 486.701 C 613.420 487.808, 607.991 492.388, 606.037 496.424 C 604.160 500.302, 604.002 502.506, 604.022 524.566 C 604.047 551.465, 604.639 554.334, 611.194 559.334 C 616.552 563.421, 622.889 564.242, 645.829 563.817 C 664.695 563.468, 666.860 563.245, 670.624 561.261 C 680.752 555.924, 682.353 550.264, 681.842 521.608 C 681.509 502.890, 681.321 501.167, 679.121 496.684 C 677.634 493.654, 675.255 490.873, 672.705 489.184 L 668.652 486.500 644.076 486.342 C 630.559 486.255, 618.629 486.417, 617.563 486.701 M 274.667 505.667 C 274.300 506.033, 274 514.808, 274 525.167 L 274 544 293.500 544 L 313 544 313 524.500 L 313 505 294.167 505 C 283.808 505, 275.033 505.300, 274.667 505.667 M 391 524.500 L 391 544 410 544 L 429 544 429 524.500 L 429 505 410 505 L 391 505 391 524.500 M 507 524.478 L 507 544 526.522 544 L 546.043 544 545.772 524.750 L 545.500 505.500 526.250 505.228 L 507 504.957 507 524.478 M 623.667 505.667 C 623.300 506.033, 623 514.808, 623 525.167 L 623 544 642.500 544 L 662 544 662 524.500 L 662 505 643.167 505 C 632.808 505, 624.033 505.300, 623.667 505.667 M 382.500 589.393 C 378.179 591.286, 373.143 596.827, 371.998 600.948 C 371.455 602.901, 371.019 614.625, 371.028 627 C 371.046 651.801, 371.593 654.553, 377.624 660.186 C 382.417 664.663, 384.688 665.001, 409.815 664.978 C 435.538 664.954, 438.618 664.399, 443.702 658.868 C 448.473 653.679, 449 650.531, 448.994 627.282 C 448.991 615.169, 448.523 603.823, 447.940 601.723 C 446.635 597.022, 441.572 591.137, 437.298 589.351 C 432.755 587.453, 386.847 587.488, 382.500 589.393 M 498.459 589.880 C 493.917 591.942, 489.376 596.813, 488.250 600.827 C 487.837 602.297, 487.500 614.075, 487.500 627 C 487.500 649.428, 487.602 650.691, 489.741 654.692 C 490.973 656.998, 493.638 660.148, 495.663 661.692 L 499.344 664.500 525.995 664.500 C 552.518 664.500, 552.664 664.488, 556.163 662.090 C 558.098 660.765, 560.765 658.097, 562.090 656.162 C 564.485 652.666, 564.500 652.482, 564.500 626.572 L 564.500 600.500 561.732 596.424 C 560.210 594.183, 557.224 591.370, 555.096 590.174 C 551.415 588.105, 550.047 588.001, 526.864 588.022 C 505.391 588.041, 502.020 588.262, 498.459 589.880 M 616.145 589.070 C 611.722 590.841, 607.956 594.166, 605.977 598.044 C 604.169 601.590, 604 603.986, 604 626.144 C 604 648.786, 604.139 650.655, 606.121 654.750 C 607.399 657.390, 609.855 660.199, 612.298 661.816 L 616.354 664.500 642.591 664.500 L 668.828 664.500 673.075 661.500 C 680.982 655.914, 681.500 653.825, 681.500 627.500 C 681.500 602.699, 681.003 599.533, 676.211 593.839 C 671.599 588.358, 669.492 587.994, 642.782 588.063 C 629.427 588.098, 617.440 588.551, 616.145 589.070 M 270.500 592.895 C 265.352 594.217, 261.211 596.857, 258.302 600.671 L 255.500 604.344 255.500 631.008 L 255.500 657.671 258.362 661.800 C 260.024 664.200, 263.040 666.809, 265.559 668.029 C 269.668 670.018, 271.198 670.111, 294.786 669.814 L 319.677 669.500 323.662 666.736 C 325.854 665.216, 328.627 662.230, 329.824 660.100 C 331.892 656.420, 332 655.027, 332 632.082 C 332 606.280, 331.543 603.353, 326.702 598.169 C 321.700 592.811, 320.164 592.518, 296 592.314 C 283.625 592.210, 272.150 592.471, 270.500 592.895 M 391 626.500 L 391 646 410 646 L 429 646 429 626.500 L 429 607 410 607 L 391 607 391 626.500 M 507 626.522 L 507 646.043 526.250 645.772 L 545.500 645.500 545.772 626.250 L 546.043 607 526.522 607 L 507 607 507 626.522 M 623.228 626.250 L 623.500 645.500 642.750 645.772 L 662 646.043 662 626.522 L 662 607 642.478 607 L 622.957 607 623.228 626.250 M 274.228 631.250 L 274.500 650.500 293.750 650.772 L 313 651.043 313 631.522 L 313 612 293.478 612 L 273.957 612 274.228 631.250 M 268.558 690.451 C 263.776 692.204, 260.309 694.706, 257.562 698.385 C 255.600 701.013, 255.500 702.440, 255.500 727.823 C 255.500 754.473, 255.502 754.504, 257.947 758.116 C 259.293 760.104, 261.959 762.804, 263.871 764.116 C 267.267 766.445, 267.912 766.507, 291.810 766.801 L 316.273 767.101 321.638 764.476 C 325.557 762.559, 327.676 760.703, 329.501 757.588 C 331.984 753.352, 332 753.164, 332 728.612 C 332 702.223, 331.773 700.805, 326.633 695.155 C 321.781 689.820, 320.189 689.519, 295.500 689.253 C 277.442 689.059, 271.653 689.316, 268.558 690.451 M 386.236 689.946 C 380.812 691.287, 375.402 695.538, 373.121 700.250 C 371.152 704.317, 371 706.242, 371.006 727.066 C 371.009 739.411, 371.476 751.172, 372.044 753.219 C 373.426 758.193, 377.527 762.880, 382.459 765.120 C 385.992 766.725, 389.328 766.958, 409 766.972 C 422.401 766.982, 433.108 766.542, 435.477 765.885 C 440.771 764.415, 446.505 758.552, 447.971 753.109 C 448.743 750.242, 449.027 741.182, 448.817 726.146 C 448.509 704.132, 448.431 703.379, 446.011 699.152 C 444.477 696.473, 441.789 693.786, 439.011 692.152 C 434.521 689.513, 434.394 689.499, 412 689.319 C 399.625 689.220, 388.031 689.502, 386.236 689.946 M 501.127 690.457 C 496.326 691.999, 491.732 695.855, 489.161 700.500 C 487.740 703.067, 487.500 707.045, 487.500 728.078 L 487.500 752.657 490.500 757.501 C 492.470 760.682, 495.013 763.144, 497.907 764.672 C 502.165 766.921, 503.115 766.999, 525.907 766.978 C 551.911 766.954, 554.510 766.453, 560.186 760.376 C 564.660 755.587, 565 753.305, 565 728.092 C 565 705.131, 564.920 704.163, 562.673 699.907 C 561.394 697.483, 558.431 694.150, 556.090 692.500 L 551.833 689.500 528.666 689.276 C 511.013 689.106, 504.459 689.387, 501.127 690.457 M 213 699.669 C 208.967 701.243, 207 704.336, 207 709.102 C 207 713.046, 207.449 714.208, 209.635 715.927 C 212.759 718.385, 218.611 718.661, 221.701 716.497 C 224.547 714.504, 226.333 709.003, 225.145 705.894 C 223.347 701.191, 217.188 698.035, 213 699.669 M 274 728 L 274 747 293.500 747 L 313 747 313 728 L 313 709 293.500 709 L 274 709 274 728 M 391 728 L 391 747 410 747 L 429 747 429 728 L 429 709 410 709 L 391 709 391 728 M 507 728 L 507 747 526.500 747 L 546 747 546 728 L 546 709 526.500 709 L 507 709 507 728 M 640.500 721.390 C 634.273 724.343, 628.794 729.979, 625.813 736.500 C 623.666 741.197, 623.506 743.001, 623.174 766.250 C 622.980 779.862, 623.201 791, 623.666 791 C 624.130 791, 640.706 774.800, 660.500 755 L 696.490 719 670.995 719.010 C 646.254 719.019, 645.352 719.090, 640.500 721.390 M 668 774.531 C 631.187 811.380, 625.739 816.455, 619.763 819.463 C 616.057 821.327, 610.652 823.346, 607.751 823.948 C 604.016 824.723, 550.540 824.964, 424.488 824.771 L 246.500 824.500 240 822.276 C 236.425 821.053, 231.813 818.900, 229.750 817.490 L 226 814.928 226 818.304 C 226 822.735, 231.301 833.234, 235.192 836.508 C 236.883 837.931, 240.119 840.087, 242.384 841.298 L 246.500 843.500 468.500 843.500 L 690.500 843.500 695 840.839 C 701.125 837.217, 704.415 833.532, 707.454 826.887 L 710.021 821.274 709.761 777.132 L 709.500 732.990 668 774.531" stroke="none" fill="#1027d5" fill-rule="evenodd"/>
</svg>